<svg width="251" height="11" viewBox="0 0 251 11" fill="none" xmlns="http://www.w3.org/2000/svg">
<path d="M5.01918 10.556C4.05785 10.556 3.21318 10.346 2.48518 9.926C1.75718 9.49667 1.18785 8.90867 0.777182 8.162C0.375848 7.41533 0.175182 6.56133 0.175182 5.6C0.175182 4.62933 0.375848 3.77067 0.777182 3.024C1.18785 2.27733 1.75718 1.694 2.48518 1.274C3.21318 0.853999 4.05785 0.643999 5.01918 0.643999C5.98052 0.643999 6.82518 0.853999 7.55318 1.274C8.28118 1.694 8.84585 2.27733 9.24718 3.024C9.65785 3.77067 9.86318 4.62933 9.86318 5.6C9.86318 6.56133 9.65785 7.41533 9.24718 8.162C8.84585 8.90867 8.28118 9.49667 7.55318 9.926C6.82518 10.346 5.98052 10.556 5.01918 10.556ZM5.01918 10.038C5.89652 10.038 6.65718 9.85133 7.30118 9.478C7.94518 9.10467 8.43985 8.582 8.78518 7.91C9.13985 7.238 9.31718 6.468 9.31718 5.6C9.31718 4.71333 9.13985 3.93867 8.78518 3.276C8.43985 2.604 7.94518 2.08133 7.30118 1.708C6.65718 1.33467 5.89652 1.148 5.01918 1.148C4.14185 1.148 3.38118 1.33467 2.73718 1.708C2.09318 2.08133 1.59385 2.604 1.23918 3.276C0.893848 3.93867 0.721182 4.71333 0.721182 5.6C0.721182 6.468 0.893848 7.238 1.23918 7.91C1.59385 8.582 2.09318 9.10467 2.73718 9.478C3.38118 9.85133 4.14185 10.038 5.01918 10.038ZM5.01918 8.834C4.45918 8.834 3.95052 8.708 3.49318 8.456C3.03585 8.204 2.66718 7.83533 2.38718 7.35C2.11652 6.85533 1.98118 6.26733 1.98118 5.586C1.98118 4.90467 2.11652 4.32133 2.38718 3.836C2.66718 3.35067 3.03585 2.982 3.49318 2.73C3.95052 2.46867 4.45918 2.338 5.01918 2.338C5.70985 2.338 6.31652 2.52467 6.83918 2.898C7.36185 3.262 7.71185 3.78933 7.88918 4.48H6.81118C6.68052 4.06 6.45185 3.74267 6.12518 3.528C5.79852 3.304 5.42518 3.192 5.00518 3.192C4.46385 3.192 3.99718 3.39267 3.60518 3.794C3.21318 4.19533 3.01718 4.79733 3.01718 5.6C3.01718 6.39333 3.21318 6.99067 3.60518 7.392C3.99718 7.79333 4.46385 7.994 5.00518 7.994C5.91985 7.994 6.52185 7.56933 6.81118 6.72H7.88918C7.71185 7.37333 7.36185 7.89133 6.83918 8.274C6.31652 8.64733 5.70985 8.834 5.01918 8.834ZM15.1635 10.5V9.674C15.8262 9.15133 16.4515 8.624 17.0395 8.092C17.6368 7.55067 18.1642 7.01867 18.6215 6.496C19.0882 5.97333 19.4522 5.46 19.7135 4.956C19.9842 4.452 20.1195 3.96667 20.1195 3.5C20.1195 3.15467 20.0588 2.83267 19.9375 2.534C19.8255 2.23533 19.6388 1.99733 19.3775 1.82C19.1162 1.63333 18.7615 1.54 18.3135 1.54C17.8842 1.54 17.5248 1.638 17.2355 1.834C16.9462 2.02067 16.7268 2.27267 16.5775 2.59C16.4375 2.90733 16.3675 3.248 16.3675 3.612H15.2335C15.2335 2.968 15.3688 2.41733 15.6395 1.96C15.9102 1.49333 16.2788 1.13867 16.7455 0.895999C17.2122 0.653333 17.7395 0.532 18.3275 0.532C19.1955 0.532 19.9048 0.779333 20.4555 1.274C21.0155 1.75933 21.2955 2.48733 21.2955 3.458C21.2955 4.03667 21.1508 4.61067 20.8615 5.18C20.5722 5.74 20.2035 6.286 19.7555 6.818C19.3075 7.34067 18.8268 7.83067 18.3135 8.288C17.8095 8.74533 17.3382 9.156 16.8995 9.52H21.6315V10.5H15.1635ZM27.0145 10.668C26.1465 10.668 25.3952 10.458 24.7605 10.038C24.1352 9.60867 23.6545 9.016 23.3185 8.26C22.9825 7.49467 22.8145 6.608 22.8145 5.6C22.8145 4.592 22.9825 3.71 23.3185 2.954C23.6545 2.18867 24.1352 1.596 24.7605 1.176C25.3952 0.746667 26.1465 0.532 27.0145 0.532C27.8825 0.532 28.6292 0.746667 29.2545 1.176C29.8798 1.596 30.3605 2.18867 30.6965 2.954C31.0325 3.71 31.2005 4.592 31.2005 5.6C31.2005 6.608 31.0325 7.49467 30.6965 8.26C30.3605 9.016 29.8798 9.60867 29.2545 10.038C28.6292 10.458 27.8825 10.668 27.0145 10.668ZM27.0145 9.632C27.5838 9.632 28.0925 9.47333 28.5405 9.156C28.9978 8.82933 29.3525 8.36733 29.6045 7.77C29.8658 7.16333 29.9965 6.44 29.9965 5.6C29.9965 4.76 29.8658 4.04133 29.6045 3.444C29.3525 2.84667 28.9978 2.38933 28.5405 2.072C28.0925 1.74533 27.5838 1.582 27.0145 1.582C26.4358 1.582 25.9225 1.74533 25.4745 2.072C25.0265 2.38933 24.6718 2.84667 24.4105 3.444C24.1492 4.04133 24.0185 4.76 24.0185 5.6C24.0185 6.44 24.1492 7.16333 24.4105 7.77C24.6718 8.36733 25.0265 8.82933 25.4745 9.156C25.9225 9.47333 26.4358 9.632 27.0145 9.632ZM32.6088 10.5V9.674C33.2715 9.15133 33.8968 8.624 34.4848 8.092C35.0821 7.55067 35.6095 7.01867 36.0668 6.496C36.5335 5.97333 36.8975 5.46 37.1588 4.956C37.4295 4.452 37.5648 3.96667 37.5648 3.5C37.5648 3.15467 37.5041 2.83267 37.3828 2.534C37.2708 2.23533 37.0841 1.99733 36.8228 1.82C36.5615 1.63333 36.2068 1.54 35.7588 1.54C35.3295 1.54 34.9701 1.638 34.6808 1.834C34.3915 2.02067 34.1721 2.27267 34.0228 2.59C33.8828 2.90733 33.8128 3.248 33.8128 3.612H32.6788C32.6788 2.968 32.8141 2.41733 33.0848 1.96C33.3555 1.49333 33.7241 1.13867 34.1908 0.895999C34.6575 0.653333 35.1848 0.532 35.7728 0.532C36.6408 0.532 37.3501 0.779333 37.9008 1.274C38.4608 1.75933 38.7408 2.48733 38.7408 3.458C38.7408 4.03667 38.5961 4.61067 38.3068 5.18C38.0175 5.74 37.6488 6.286 37.2008 6.818C36.7528 7.34067 36.2721 7.83067 35.7588 8.288C35.2548 8.74533 34.7835 9.156 34.3448 9.52H39.0768V10.5H32.6088ZM40.6205 10.5V9.674C41.2832 9.15133 41.9085 8.624 42.4965 8.092C43.0939 7.55067 43.6212 7.01867 44.0785 6.496C44.5452 5.97333 44.9092 5.46 45.1705 4.956C45.4412 4.452 45.5765 3.96667 45.5765 3.5C45.5765 3.15467 45.5159 2.83267 45.3945 2.534C45.2825 2.23533 45.0959 1.99733 44.8345 1.82C44.5732 1.63333 44.2185 1.54 43.7705 1.54C43.3412 1.54 42.9819 1.638 42.6925 1.834C42.4032 2.02067 42.1839 2.27267 42.0345 2.59C41.8945 2.90733 41.8245 3.248 41.8245 3.612H40.6905C40.6905 2.968 40.8259 2.41733 41.0965 1.96C41.3672 1.49333 41.7359 1.13867 42.2025 0.895999C42.6692 0.653333 43.1965 0.532 43.7845 0.532C44.6525 0.532 45.3619 0.779333 45.9125 1.274C46.4725 1.75933 46.7525 2.48733 46.7525 3.458C46.7525 4.03667 46.6079 4.61067 46.3185 5.18C46.0292 5.74 45.6605 6.286 45.2125 6.818C44.7645 7.34067 44.2839 7.83067 43.7705 8.288C43.2665 8.74533 42.7952 9.156 42.3565 9.52H47.0885V10.5H40.6205ZM52.2813 6.93V5.936H57.8253V6.93H52.2813ZM65.6701 10.5V1.666H62.7441V0.699999H69.7721V1.666H66.8461V10.5H65.6701ZM73.0443 10.668C72.391 10.668 71.803 10.5187 71.2803 10.22C70.7576 9.92133 70.3423 9.50133 70.0343 8.96C69.7356 8.40933 69.5863 7.76533 69.5863 7.028C69.5863 6.29067 69.7403 5.65133 70.0483 5.11C70.3563 4.55933 70.7716 4.13467 71.2943 3.836C71.8263 3.53733 72.419 3.388 73.0723 3.388C73.7256 3.388 74.3136 3.53733 74.8363 3.836C75.359 4.13467 75.7696 4.55933 76.0683 5.11C76.3763 5.65133 76.5303 6.29067 76.5303 7.028C76.5303 7.76533 76.3763 8.40933 76.0683 8.96C75.7603 9.50133 75.3403 9.92133 74.8083 10.22C74.2856 10.5187 73.6976 10.668 73.0443 10.668ZM73.0443 9.66C73.4456 9.66 73.819 9.562 74.1643 9.366C74.5096 9.17 74.7896 8.876 75.0043 8.484C75.219 8.092 75.3263 7.60667 75.3263 7.028C75.3263 6.44933 75.219 5.964 75.0043 5.572C74.799 5.18 74.5236 4.886 74.1783 4.69C73.833 4.494 73.4643 4.396 73.0723 4.396C72.671 4.396 72.2976 4.494 71.9523 4.69C71.607 4.886 71.327 5.18 71.1123 5.572C70.8976 5.964 70.7903 6.44933 70.7903 7.028C70.7903 7.60667 70.8976 8.092 71.1123 8.484C71.327 8.876 71.6023 9.17 71.9383 9.366C72.2836 9.562 72.6523 9.66 73.0443 9.66ZM81.3155 10.668C80.6248 10.668 80.0181 10.5093 79.4955 10.192C78.9821 9.87467 78.5808 9.44067 78.2915 8.89C78.0115 8.33933 77.8715 7.714 77.8715 7.014C77.8715 6.314 78.0161 5.69333 78.3055 5.152C78.5948 4.60133 78.9961 4.172 79.5095 3.864C80.0228 3.54667 80.6295 3.388 81.3295 3.388C81.8988 3.388 82.4028 3.50467 82.8415 3.738C83.2801 3.97133 83.6208 4.298 83.8635 4.718V0.42H85.0395V10.5H83.9755L83.8635 9.352C83.6395 9.688 83.3175 9.99133 82.8975 10.262C82.4775 10.5327 81.9501 10.668 81.3155 10.668ZM81.4415 9.646C81.9081 9.646 82.3188 9.53867 82.6735 9.324C83.0375 9.1 83.3175 8.792 83.5135 8.4C83.7188 8.008 83.8215 7.55067 83.8215 7.028C83.8215 6.50533 83.7188 6.048 83.5135 5.656C83.3175 5.264 83.0375 4.96067 82.6735 4.746C82.3188 4.522 81.9081 4.41 81.4415 4.41C80.9841 4.41 80.5735 4.522 80.2095 4.746C79.8548 4.96067 79.5748 5.264 79.3695 5.656C79.1735 6.048 79.0755 6.50533 79.0755 7.028C79.0755 7.55067 79.1735 8.008 79.3695 8.4C79.5748 8.792 79.8548 9.1 80.2095 9.324C80.5735 9.53867 80.9841 9.646 81.4415 9.646ZM90.1205 10.668C89.4671 10.668 88.8791 10.5187 88.3565 10.22C87.8338 9.92133 87.4185 9.50133 87.1105 8.96C86.8118 8.40933 86.6625 7.76533 86.6625 7.028C86.6625 6.29067 86.8165 5.65133 87.1245 5.11C87.4325 4.55933 87.8478 4.13467 88.3705 3.836C88.9025 3.53733 89.4951 3.388 90.1485 3.388C90.8018 3.388 91.3898 3.53733 91.9125 3.836C92.4351 4.13467 92.8458 4.55933 93.1445 5.11C93.4525 5.65133 93.6065 6.29067 93.6065 7.028C93.6065 7.76533 93.4525 8.40933 93.1445 8.96C92.8365 9.50133 92.4165 9.92133 91.8845 10.22C91.3618 10.5187 90.7738 10.668 90.1205 10.668ZM90.1205 9.66C90.5218 9.66 90.8951 9.562 91.2405 9.366C91.5858 9.17 91.8658 8.876 92.0805 8.484C92.2951 8.092 92.4025 7.60667 92.4025 7.028C92.4025 6.44933 92.2951 5.964 92.0805 5.572C91.8751 5.18 91.5998 4.886 91.2545 4.69C90.9091 4.494 90.5405 4.396 90.1485 4.396C89.7471 4.396 89.3738 4.494 89.0285 4.69C88.6831 4.886 88.4031 5.18 88.1885 5.572C87.9738 5.964 87.8665 6.44933 87.8665 7.028C87.8665 7.60667 87.9738 8.092 88.1885 8.484C88.4031 8.876 88.6785 9.17 89.0145 9.366C89.3598 9.562 89.7285 9.66 90.1205 9.66ZM97.9016 10.668C97.071 10.668 96.3803 10.458 95.8296 10.038C95.279 9.618 94.957 9.04867 94.8636 8.33H96.0676C96.1423 8.694 96.3336 9.01133 96.6416 9.282C96.959 9.54333 97.3836 9.674 97.9156 9.674C98.4103 9.674 98.7743 9.57133 99.0076 9.366C99.241 9.15133 99.3576 8.89933 99.3576 8.61C99.3576 8.19 99.2036 7.91 98.8956 7.77C98.597 7.63 98.1723 7.504 97.6216 7.392C97.2483 7.31733 96.875 7.21 96.5016 7.07C96.1283 6.93 95.8156 6.734 95.5636 6.482C95.3116 6.22067 95.1856 5.88 95.1856 5.46C95.1856 4.85333 95.4096 4.35867 95.8576 3.976C96.315 3.584 96.931 3.388 97.7056 3.388C98.443 3.388 99.045 3.57467 99.5116 3.948C99.9876 4.312 100.263 4.83467 100.338 5.516H99.1756C99.129 5.16133 98.975 4.886 98.7136 4.69C98.4616 4.48467 98.121 4.382 97.6916 4.382C97.2716 4.382 96.945 4.47067 96.7116 4.648C96.4876 4.82533 96.3756 5.05867 96.3756 5.348C96.3756 5.628 96.5203 5.84733 96.8096 6.006C97.1083 6.16467 97.5096 6.3 98.0136 6.412C98.443 6.50533 98.849 6.622 99.2316 6.762C99.6236 6.89267 99.941 7.09333 100.184 7.364C100.436 7.62533 100.562 8.008 100.562 8.512C100.571 9.13733 100.333 9.65533 99.8476 10.066C99.3716 10.4673 98.723 10.668 97.9016 10.668ZM109.111 10.668C108.457 10.668 107.869 10.5187 107.347 10.22C106.824 9.92133 106.409 9.50133 106.101 8.96C105.802 8.40933 105.653 7.76533 105.653 7.028C105.653 6.29067 105.807 5.65133 106.115 5.11C106.423 4.55933 106.838 4.13467 107.361 3.836C107.893 3.53733 108.485 3.388 109.139 3.388C109.792 3.388 110.38 3.53733 110.903 3.836C111.425 4.13467 111.836 4.55933 112.135 5.11C112.443 5.65133 112.597 6.29067 112.597 7.028C112.597 7.76533 112.443 8.40933 112.135 8.96C111.827 9.50133 111.407 9.92133 110.875 10.22C110.352 10.5187 109.764 10.668 109.111 10.668ZM109.111 9.66C109.512 9.66 109.885 9.562 110.231 9.366C110.576 9.17 110.856 8.876 111.071 8.484C111.285 8.092 111.393 7.60667 111.393 7.028C111.393 6.44933 111.285 5.964 111.071 5.572C110.865 5.18 110.59 4.886 110.245 4.69C109.899 4.494 109.531 4.396 109.139 4.396C108.737 4.396 108.364 4.494 108.019 4.69C107.673 4.886 107.393 5.18 107.179 5.572C106.964 5.964 106.857 6.44933 106.857 7.028C106.857 7.60667 106.964 8.092 107.179 8.484C107.393 8.876 107.669 9.17 108.005 9.366C108.35 9.562 108.719 9.66 109.111 9.66ZM116.892 10.668C116.061 10.668 115.371 10.458 114.82 10.038C114.269 9.618 113.947 9.04867 113.854 8.33H115.058C115.133 8.694 115.324 9.01133 115.632 9.282C115.949 9.54333 116.374 9.674 116.906 9.674C117.401 9.674 117.765 9.57133 117.998 9.366C118.231 9.15133 118.348 8.89933 118.348 8.61C118.348 8.19 118.194 7.91 117.886 7.77C117.587 7.63 117.163 7.504 116.612 7.392C116.239 7.31733 115.865 7.21 115.492 7.07C115.119 6.93 114.806 6.734 114.554 6.482C114.302 6.22067 114.176 5.88 114.176 5.46C114.176 4.85333 114.4 4.35867 114.848 3.976C115.305 3.584 115.921 3.388 116.696 3.388C117.433 3.388 118.035 3.57467 118.502 3.948C118.978 4.312 119.253 4.83467 119.328 5.516H118.166C118.119 5.16133 117.965 4.886 117.704 4.69C117.452 4.48467 117.111 4.382 116.682 4.382C116.262 4.382 115.935 4.47067 115.702 4.648C115.478 4.82533 115.366 5.05867 115.366 5.348C115.366 5.628 115.511 5.84733 115.8 6.006C116.099 6.16467 116.5 6.3 117.004 6.412C117.433 6.50533 117.839 6.622 118.222 6.762C118.614 6.89267 118.931 7.09333 119.174 7.364C119.426 7.62533 119.552 8.008 119.552 8.512C119.561 9.13733 119.323 9.65533 118.838 10.066C118.362 10.4673 117.713 10.668 116.892 10.668ZM128.087 10.668C127.396 10.668 126.79 10.5093 126.267 10.192C125.754 9.87467 125.352 9.44067 125.063 8.89C124.783 8.33933 124.643 7.714 124.643 7.014C124.643 6.314 124.788 5.69333 125.077 5.152C125.366 4.60133 125.768 4.172 126.281 3.864C126.794 3.54667 127.401 3.388 128.101 3.388C128.67 3.388 129.174 3.50467 129.613 3.738C130.052 3.97133 130.392 4.298 130.635 4.718V0.42H131.811V10.5H130.747L130.635 9.352C130.411 9.688 130.089 9.99133 129.669 10.262C129.249 10.5327 128.722 10.668 128.087 10.668ZM128.213 9.646C128.68 9.646 129.09 9.53867 129.445 9.324C129.809 9.1 130.089 8.792 130.285 8.4C130.49 8.008 130.593 7.55067 130.593 7.028C130.593 6.50533 130.49 6.048 130.285 5.656C130.089 5.264 129.809 4.96067 129.445 4.746C129.09 4.522 128.68 4.41 128.213 4.41C127.756 4.41 127.345 4.522 126.981 4.746C126.626 4.96067 126.346 5.264 126.141 5.656C125.945 6.048 125.847 6.50533 125.847 7.028C125.847 7.55067 125.945 8.008 126.141 8.4C126.346 8.792 126.626 9.1 126.981 9.324C127.345 9.53867 127.756 9.646 128.213 9.646ZM134.442 2.016C134.209 2.016 134.013 1.94133 133.854 1.792C133.705 1.63333 133.63 1.43733 133.63 1.204C133.63 0.98 133.705 0.793333 133.854 0.643999C134.013 0.494666 134.209 0.42 134.442 0.42C134.666 0.42 134.857 0.494666 135.016 0.643999C135.175 0.793333 135.254 0.98 135.254 1.204C135.254 1.43733 135.175 1.63333 135.016 1.792C134.857 1.94133 134.666 2.016 134.442 2.016ZM133.854 10.5V3.556H135.03V10.5H133.854ZM137.078 10.5V3.556H138.142L138.24 4.886C138.454 4.42867 138.781 4.06467 139.22 3.794C139.658 3.52333 140.2 3.388 140.844 3.388V4.62H140.522C140.111 4.62 139.733 4.69467 139.388 4.844C139.042 4.984 138.767 5.22667 138.562 5.572C138.356 5.91733 138.254 6.39333 138.254 7V10.5H137.078ZM145.026 10.668C144.363 10.668 143.775 10.5187 143.262 10.22C142.748 9.912 142.342 9.48733 142.044 8.946C141.754 8.40467 141.61 7.76533 141.61 7.028C141.61 6.3 141.754 5.66533 142.044 5.124C142.333 4.57333 142.734 4.14867 143.248 3.85C143.77 3.542 144.372 3.388 145.054 3.388C145.726 3.388 146.304 3.542 146.79 3.85C147.284 4.14867 147.662 4.54533 147.924 5.04C148.185 5.53467 148.316 6.06667 148.316 6.636C148.316 6.73867 148.311 6.84133 148.302 6.944C148.302 7.04667 148.302 7.16333 148.302 7.294H142.772C142.8 7.826 142.921 8.26933 143.136 8.624C143.36 8.96933 143.635 9.23067 143.962 9.408C144.298 9.58533 144.652 9.674 145.026 9.674C145.511 9.674 145.917 9.562 146.244 9.338C146.57 9.114 146.808 8.81067 146.958 8.428H148.12C147.933 9.072 147.574 9.60867 147.042 10.038C146.519 10.458 145.847 10.668 145.026 10.668ZM145.026 4.382C144.466 4.382 143.966 4.55467 143.528 4.9C143.098 5.236 142.851 5.73067 142.786 6.384H147.154C147.126 5.75867 146.911 5.26867 146.51 4.914C146.108 4.55933 145.614 4.382 145.026 4.382ZM150.588 2.016C150.355 2.016 150.159 1.94133 150 1.792C149.851 1.63333 149.776 1.43733 149.776 1.204C149.776 0.98 149.851 0.793333 150 0.643999C150.159 0.494666 150.355 0.42 150.588 0.42C150.812 0.42 151.004 0.494666 151.162 0.643999C151.321 0.793333 151.4 0.98 151.4 1.204C151.4 1.43733 151.321 1.63333 151.162 1.792C151.004 1.94133 150.812 2.016 150.588 2.016ZM150 10.5V3.556H151.176V10.5H150ZM155.968 10.5C155.333 10.5 154.834 10.346 154.47 10.038C154.106 9.73 153.924 9.17467 153.924 8.372V4.55H152.72V3.556H153.924L154.078 1.89H155.1V3.556H157.144V4.55H155.1V8.372C155.1 8.81067 155.189 9.10933 155.366 9.268C155.543 9.41733 155.856 9.492 156.304 9.492H157.032V10.5H155.968ZM161.611 10.668C160.957 10.668 160.369 10.5187 159.847 10.22C159.324 9.92133 158.909 9.50133 158.601 8.96C158.302 8.40933 158.153 7.76533 158.153 7.028C158.153 6.29067 158.307 5.65133 158.615 5.11C158.923 4.55933 159.338 4.13467 159.861 3.836C160.393 3.53733 160.985 3.388 161.639 3.388C162.292 3.388 162.88 3.53733 163.403 3.836C163.925 4.13467 164.336 4.55933 164.635 5.11C164.943 5.65133 165.097 6.29067 165.097 7.028C165.097 7.76533 164.943 8.40933 164.635 8.96C164.327 9.50133 163.907 9.92133 163.375 10.22C162.852 10.5187 162.264 10.668 161.611 10.668ZM161.611 9.66C162.012 9.66 162.385 9.562 162.731 9.366C163.076 9.17 163.356 8.876 163.571 8.484C163.785 8.092 163.893 7.60667 163.893 7.028C163.893 6.44933 163.785 5.964 163.571 5.572C163.365 5.18 163.09 4.886 162.745 4.69C162.399 4.494 162.031 4.396 161.639 4.396C161.237 4.396 160.864 4.494 160.519 4.69C160.173 4.886 159.893 5.18 159.679 5.572C159.464 5.964 159.357 6.44933 159.357 7.028C159.357 7.60667 159.464 8.092 159.679 8.484C159.893 8.876 160.169 9.17 160.505 9.366C160.85 9.562 161.219 9.66 161.611 9.66ZM169.392 10.668C168.561 10.668 167.871 10.458 167.32 10.038C166.769 9.618 166.447 9.04867 166.354 8.33H167.558C167.633 8.694 167.824 9.01133 168.132 9.282C168.449 9.54333 168.874 9.674 169.406 9.674C169.901 9.674 170.265 9.57133 170.498 9.366C170.731 9.15133 170.848 8.89933 170.848 8.61C170.848 8.19 170.694 7.91 170.386 7.77C170.087 7.63 169.663 7.504 169.112 7.392C168.739 7.31733 168.365 7.21 167.992 7.07C167.619 6.93 167.306 6.734 167.054 6.482C166.802 6.22067 166.676 5.88 166.676 5.46C166.676 4.85333 166.9 4.35867 167.348 3.976C167.805 3.584 168.421 3.388 169.196 3.388C169.933 3.388 170.535 3.57467 171.002 3.948C171.478 4.312 171.753 4.83467 171.828 5.516H170.666C170.619 5.16133 170.465 4.886 170.204 4.69C169.952 4.48467 169.611 4.382 169.182 4.382C168.762 4.382 168.435 4.47067 168.202 4.648C167.978 4.82533 167.866 5.05867 167.866 5.348C167.866 5.628 168.011 5.84733 168.3 6.006C168.599 6.16467 169 6.3 169.504 6.412C169.933 6.50533 170.339 6.622 170.722 6.762C171.114 6.89267 171.431 7.09333 171.674 7.364C171.926 7.62533 172.052 8.008 172.052 8.512C172.061 9.13733 171.823 9.65533 171.338 10.066C170.862 10.4673 170.213 10.668 169.392 10.668ZM177.437 10.5V3.556H178.501L178.599 4.886C178.814 4.42867 179.14 4.06467 179.579 3.794C180.018 3.52333 180.559 3.388 181.203 3.388V4.62H180.881C180.47 4.62 180.092 4.69467 179.747 4.844C179.402 4.984 179.126 5.22667 178.921 5.572C178.716 5.91733 178.613 6.39333 178.613 7V10.5H177.437ZM185.385 10.668C184.722 10.668 184.134 10.5187 183.621 10.22C183.108 9.912 182.702 9.48733 182.403 8.946C182.114 8.40467 181.969 7.76533 181.969 7.028C181.969 6.3 182.114 5.66533 182.403 5.124C182.692 4.57333 183.094 4.14867 183.607 3.85C184.13 3.542 184.732 3.388 185.413 3.388C186.085 3.388 186.664 3.542 187.149 3.85C187.644 4.14867 188.022 4.54533 188.283 5.04C188.544 5.53467 188.675 6.06667 188.675 6.636C188.675 6.73867 188.67 6.84133 188.661 6.944C188.661 7.04667 188.661 7.16333 188.661 7.294H183.131C183.159 7.826 183.28 8.26933 183.495 8.624C183.719 8.96933 183.994 9.23067 184.321 9.408C184.657 9.58533 185.012 9.674 185.385 9.674C185.87 9.674 186.276 9.562 186.603 9.338C186.93 9.114 187.168 8.81067 187.317 8.428H188.479C188.292 9.072 187.933 9.60867 187.401 10.038C186.878 10.458 186.206 10.668 185.385 10.668ZM185.385 4.382C184.825 4.382 184.326 4.55467 183.887 4.9C183.458 5.236 183.21 5.73067 183.145 6.384H187.513C187.485 5.75867 187.27 5.26867 186.869 4.914C186.468 4.55933 185.973 4.382 185.385 4.382ZM192.894 10.668C192.063 10.668 191.372 10.458 190.822 10.038C190.271 9.618 189.949 9.04867 189.856 8.33H191.06C191.134 8.694 191.326 9.01133 191.634 9.282C191.951 9.54333 192.376 9.674 192.908 9.674C193.402 9.674 193.766 9.57133 194 9.366C194.233 9.15133 194.35 8.89933 194.35 8.61C194.35 8.19 194.196 7.91 193.888 7.77C193.589 7.63 193.164 7.504 192.614 7.392C192.24 7.31733 191.867 7.21 191.494 7.07C191.12 6.93 190.808 6.734 190.556 6.482C190.304 6.22067 190.178 5.88 190.178 5.46C190.178 4.85333 190.402 4.35867 190.85 3.976C191.307 3.584 191.923 3.388 192.698 3.388C193.435 3.388 194.037 3.57467 194.504 3.948C194.98 4.312 195.255 4.83467 195.33 5.516H194.168C194.121 5.16133 193.967 4.886 193.706 4.69C193.454 4.48467 193.113 4.382 192.684 4.382C192.264 4.382 191.937 4.47067 191.704 4.648C191.48 4.82533 191.368 5.05867 191.368 5.348C191.368 5.628 191.512 5.84733 191.802 6.006C192.1 6.16467 192.502 6.3 193.006 6.412C193.435 6.50533 193.841 6.622 194.224 6.762C194.616 6.89267 194.933 7.09333 195.176 7.364C195.428 7.62533 195.554 8.008 195.554 8.512C195.563 9.13733 195.325 9.65533 194.84 10.066C194.364 10.4673 193.715 10.668 192.894 10.668ZM200.356 10.668C199.693 10.668 199.105 10.5187 198.592 10.22C198.078 9.912 197.672 9.48733 197.374 8.946C197.084 8.40467 196.94 7.76533 196.94 7.028C196.94 6.3 197.084 5.66533 197.374 5.124C197.663 4.57333 198.064 4.14867 198.578 3.85C199.1 3.542 199.702 3.388 200.384 3.388C201.056 3.388 201.634 3.542 202.12 3.85C202.614 4.14867 202.992 4.54533 203.254 5.04C203.515 5.53467 203.646 6.06667 203.646 6.636C203.646 6.73867 203.641 6.84133 203.632 6.944C203.632 7.04667 203.632 7.16333 203.632 7.294H198.102C198.13 7.826 198.251 8.26933 198.466 8.624C198.69 8.96933 198.965 9.23067 199.292 9.408C199.628 9.58533 199.982 9.674 200.356 9.674C200.841 9.674 201.247 9.562 201.574 9.338C201.9 9.114 202.138 8.81067 202.288 8.428H203.45C203.263 9.072 202.904 9.60867 202.372 10.038C201.849 10.458 201.177 10.668 200.356 10.668ZM200.356 4.382C199.796 4.382 199.296 4.55467 198.858 4.9C198.428 5.236 198.181 5.73067 198.116 6.384H202.484C202.456 5.75867 202.241 5.26867 201.84 4.914C201.438 4.55933 200.944 4.382 200.356 4.382ZM205.205 10.5V3.556H206.269L206.367 4.886C206.581 4.42867 206.908 4.06467 207.347 3.794C207.785 3.52333 208.327 3.388 208.971 3.388V4.62H208.649C208.238 4.62 207.86 4.69467 207.515 4.844C207.169 4.984 206.894 5.22667 206.689 5.572C206.483 5.91733 206.381 6.39333 206.381 7V10.5H205.205ZM212.292 10.5L209.66 3.556H210.892L212.978 9.366L215.078 3.556H216.282L213.65 10.5H212.292ZM219.546 10.668C218.967 10.668 218.486 10.57 218.104 10.374C217.721 10.178 217.436 9.91667 217.25 9.59C217.063 9.26333 216.97 8.90867 216.97 8.526C216.97 7.81667 217.24 7.27067 217.782 6.888C218.323 6.50533 219.06 6.314 219.994 6.314H221.87V6.23C221.87 5.62333 221.711 5.166 221.394 4.858C221.076 4.54067 220.652 4.382 220.12 4.382C219.662 4.382 219.266 4.49867 218.93 4.732C218.603 4.956 218.398 5.28733 218.314 5.726H217.11C217.156 5.222 217.324 4.79733 217.614 4.452C217.912 4.10667 218.281 3.84533 218.72 3.668C219.158 3.48133 219.625 3.388 220.12 3.388C221.09 3.388 221.818 3.64933 222.304 4.172C222.798 4.68533 223.046 5.37133 223.046 6.23V10.5H221.996L221.926 9.254C221.73 9.646 221.44 9.982 221.058 10.262C220.684 10.5327 220.18 10.668 219.546 10.668ZM219.728 9.674C220.176 9.674 220.558 9.55733 220.876 9.324C221.202 9.09067 221.45 8.78733 221.618 8.414C221.786 8.04067 221.87 7.64867 221.87 7.238V7.224H220.092C219.401 7.224 218.911 7.34533 218.622 7.588C218.342 7.82133 218.202 8.11533 218.202 8.47C218.202 8.834 218.332 9.128 218.594 9.352C218.864 9.56667 219.242 9.674 219.728 9.674ZM227.96 10.668C227.269 10.668 226.663 10.5093 226.14 10.192C225.627 9.87467 225.225 9.44067 224.936 8.89C224.656 8.33933 224.516 7.714 224.516 7.014C224.516 6.314 224.661 5.69333 224.95 5.152C225.239 4.60133 225.641 4.172 226.154 3.864C226.667 3.54667 227.274 3.388 227.974 3.388C228.543 3.388 229.047 3.50467 229.486 3.738C229.925 3.97133 230.265 4.298 230.508 4.718V0.42H231.684V10.5H230.62L230.508 9.352C230.284 9.688 229.962 9.99133 229.542 10.262C229.122 10.5327 228.595 10.668 227.96 10.668ZM228.086 9.646C228.553 9.646 228.963 9.53867 229.318 9.324C229.682 9.1 229.962 8.792 230.158 8.4C230.363 8.008 230.466 7.55067 230.466 7.028C230.466 6.50533 230.363 6.048 230.158 5.656C229.962 5.264 229.682 4.96067 229.318 4.746C228.963 4.522 228.553 4.41 228.086 4.41C227.629 4.41 227.218 4.522 226.854 4.746C226.499 4.96067 226.219 5.264 226.014 5.656C225.818 6.048 225.72 6.50533 225.72 7.028C225.72 7.55067 225.818 8.008 226.014 8.4C226.219 8.792 226.499 9.1 226.854 9.324C227.218 9.53867 227.629 9.646 228.086 9.646ZM236.765 10.668C236.112 10.668 235.524 10.5187 235.001 10.22C234.478 9.92133 234.063 9.50133 233.755 8.96C233.456 8.40933 233.307 7.76533 233.307 7.028C233.307 6.29067 233.461 5.65133 233.769 5.11C234.077 4.55933 234.492 4.13467 235.015 3.836C235.547 3.53733 236.14 3.388 236.793 3.388C237.446 3.388 238.034 3.53733 238.557 3.836C239.08 4.13467 239.49 4.55933 239.789 5.11C240.097 5.65133 240.251 6.29067 240.251 7.028C240.251 7.76533 240.097 8.40933 239.789 8.96C239.481 9.50133 239.061 9.92133 238.529 10.22C238.006 10.5187 237.418 10.668 236.765 10.668ZM236.765 9.66C237.166 9.66 237.54 9.562 237.885 9.366C238.23 9.17 238.51 8.876 238.725 8.484C238.94 8.092 239.047 7.60667 239.047 7.028C239.047 6.44933 238.94 5.964 238.725 5.572C238.52 5.18 238.244 4.886 237.899 4.69C237.554 4.494 237.185 4.396 236.793 4.396C236.392 4.396 236.018 4.494 235.673 4.69C235.328 4.886 235.048 5.18 234.833 5.572C234.618 5.964 234.511 6.44933 234.511 7.028C234.511 7.60667 234.618 8.092 234.833 8.484C235.048 8.876 235.323 9.17 235.659 9.366C236.004 9.562 236.373 9.66 236.765 9.66ZM244.546 10.668C243.715 10.668 243.025 10.458 242.474 10.038C241.923 9.618 241.601 9.04867 241.508 8.33H242.712C242.787 8.694 242.978 9.01133 243.286 9.282C243.603 9.54333 244.028 9.674 244.56 9.674C245.055 9.674 245.419 9.57133 245.652 9.366C245.885 9.15133 246.002 8.89933 246.002 8.61C246.002 8.19 245.848 7.91 245.54 7.77C245.241 7.63 244.817 7.504 244.266 7.392C243.893 7.31733 243.519 7.21 243.146 7.07C242.773 6.93 242.46 6.734 242.208 6.482C241.956 6.22067 241.83 5.88 241.83 5.46C241.83 4.85333 242.054 4.35867 242.502 3.976C242.959 3.584 243.575 3.388 244.35 3.388C245.087 3.388 245.689 3.57467 246.156 3.948C246.632 4.312 246.907 4.83467 246.982 5.516H245.82C245.773 5.16133 245.619 4.886 245.358 4.69C245.106 4.48467 244.765 4.382 244.336 4.382C243.916 4.382 243.589 4.47067 243.356 4.648C243.132 4.82533 243.02 5.05867 243.02 5.348C243.02 5.628 243.165 5.84733 243.454 6.006C243.753 6.16467 244.154 6.3 244.658 6.412C245.087 6.50533 245.493 6.622 245.876 6.762C246.268 6.89267 246.585 7.09333 246.828 7.364C247.08 7.62533 247.206 8.008 247.206 8.512C247.215 9.13733 246.977 9.65533 246.492 10.066C246.016 10.4673 245.367 10.668 244.546 10.668ZM249.292 10.57C249.059 10.57 248.863 10.4953 248.704 10.346C248.555 10.1873 248.48 9.996 248.48 9.772C248.48 9.548 248.555 9.36133 248.704 9.212C248.863 9.05333 249.059 8.974 249.292 8.974C249.516 8.974 249.703 9.05333 249.852 9.212C250.011 9.36133 250.09 9.548 250.09 9.772C250.09 9.996 250.011 10.1873 249.852 10.346C249.703 10.4953 249.516 10.57 249.292 10.57Z" fill="#FFFAF1"/>
</svg>
